<svg version="1.0" xmlns="http://www.w3.org/2000/svg"
 width="27.000000pt" height="38.000000pt" viewBox="0 0 222.000000 227.000000"
 preserveAspectRatio="xMidYMid meet">

<g transform="translate(0.000000,227.000000) scale(0.100000,-0.100000)"
fill="#255ec1" stroke="none">
<path d="M991 2249 c-77 -13 -184 -53 -249 -91 -123 -72 -242 -222 -294 -368
-19 -56 -23 -85 -23 -205 0 -121 4 -149 23 -205 30 -82 120 -244 230 -413 230
-354 333 -563 402 -821 16 -55 30 -94 33 -86 3 8 17 60 32 115 58 219 167 440
366 746 122 187 238 402 262 486 49 167 23 355 -71 517 -50 86 -171 203 -257
248 -132 69 -320 101 -454 77z"/>
</g>
</svg>
